:SAMPLES-PER-SECOND 30
:FULLY-SPECIFIED
:DEGREES
326
root  -7.30592 34.505 -19.9325 174.614 81.432 170.086
RightUpLeg  -12.5358 -18.9058 -6.75481
RightLeg  13.6025 0.644485 0.113066
RightFoot  -0.73149 -0.00987111 0.145706
RightToes  -36.8399 -0.191292 -0.293998
Spine  -0.828716 -0.320399 -0.087543
Spine1  -1.72006 -0.665536 0.474191
HEad  -64.2514 -13.9843 14.3965
LeftShoulder1  -1.94126e-019 -3.10601e-018 -2.51263e-017
LeftArm  -11.89 24.57 -81.8017
LeftForeArm  33.4267 -16.9439 -2.83126
LeftHand  -0.393458 -1.30914 6.97252
RightShoulder  -4.96962e-017 0 -2.36833e-017
RightArm  -31.7266 -24.9149 78.6868
RightForeArm  52.9015 14.3749 1.25942
RightHand  -0.265196 -1.55329 -8.17496
LeftUpLeg  -9.21869 4.2596 -2.45084
LeftLeg  14.2 17.0459 3.11337
LeftFoot  -2.70143 -0.0207749 -0.719509
LeftToes  -14.9199 1.46665e-006 1.03344e-007
327
root  -7.33938 34.4874 -20.1349 175.117 80.5463 170.701
RightUpLeg  -12.2425 -19.1975 -7.24606
RightLeg  13.6706 0.268867 0.0477005
RightFoot  -0.534766 -0.00831502 0.152835
RightToes  -36.7242 -0.191211 -0.294083
Spine  -0.786358 -0.284364 -0.346256
Spine1  -1.62791 -0.617103 -0.0258741
HEad  -62.5747 -15.4952 12.1837
LeftShoulder1  -1.94126e-019 -3.10601e-018 -2.51263e-017
LeftArm  -12.3824 24.6257 -81.3105
LeftForeArm  33.3373 -16.4414 -2.73762
LeftHand  -0.385145 -1.24972 6.8844
RightShoulder  -4.96962e-017 0 -2.36833e-017
RightArm  -33.4776 -25.4302 79.381
RightForeArm  53.0482 14.1575 1.28265
RightHand  -0.269483 -1.5251 -8.0008
LeftUpLeg  -9.20323 3.78677 -2.79587
LeftLeg  14.2104 16.7121 3.05732
LeftFoot  -2.44413 -0.0167495 -0.623607
LeftToes  -15.3515 1.46665e-006 1.03344e-007
328
root  -7.36943 34.4736 -20.3188 176.082 79.696 171.742
RightUpLeg  -11.9097 -19.4432 -7.59214
RightLeg  13.5899 -0.136997 -0.0235397
RightFoot  -0.393763 -0.00625989 0.157502
RightToes  -36.4076 -0.190785 -0.29388
Spine  -0.791585 -0.255231 -0.605567
Spine1  -1.62973 -0.579131 -0.531009
HEad  -60.4164 -16.6044 9.83914
LeftShoulder1  -1.94126e-019 -3.10601e-018 -2.51263e-017
LeftArm  -12.8347 24.7194 -80.7491
LeftForeArm  33.2272 -15.856 -2.63508
LeftHand  -0.393092 -1.2822 6.99213
RightShoulder  -4.96962e-017 0 -2.36833e-017
RightArm  -35.0962 -25.9152 79.9146
RightForeArm  52.8843 13.9089 1.31491
RightHand  -0.269637 -1.55745 -8.01251
LeftUpLeg  -9.281 3.38348 -3.01733
LeftLeg  14.3296 16.3533 3.02817
LeftFoot  -2.16764 -0.0129936 -0.525262
LeftToes  -15.6878 1.46665e-006 1.03344e-007
329
root  -7.39915 34.464 -20.4859 177.015 79.0363 172.738
RightUpLeg  -11.6333 -19.7622 -7.83496
RightLeg  13.5096 -0.322755 -0.0554871
RightFoot  -0.389538 -0.00367158 0.159344
RightToes  -35.9074 -0.189991 -0.293368
Spine  -0.809307 -0.159252 -0.849811
Spine1  -1.65779 -0.402221 -1.0106
HEad  -58.0069 -17.1529 7.34032
LeftShoulder1  -1.94126e-019 -3.10601e-018 -2.51263e-017
LeftArm  -13.4289 24.7409 -80.2529
LeftForeArm  33.184 -15.0783 -2.50006
LeftHand  -0.393685 -1.2281 7.05531
RightShoulder  -4.96962e-017 0 -2.36833e-017
RightArm  -35.8611 -26.3677 80.1061
RightForeArm  52.9549 13.8174 1.3247
RightHand  -0.272534 -1.47687 -7.94361
LeftUpLeg  -9.31321 2.93265 -3.18838
LeftLeg  14.3471 16.1863 3.00314
LeftFoot  -1.87616 -0.00973232 -0.432819
LeftToes  -15.4356 1.46665e-006 1.03344e-007
330
root  -7.43466 34.4537 -20.6324 177.962 78.5928 173.685
RightUpLeg  -11.4459 -19.9799 -7.98071
RightLeg  13.3072 -0.481212 -0.081125
RightFoot  0.0211609 -0.000363132 0.15581
RightToes  -35.9621 -0.188806 -0.292521
Spine  -0.81776 0.00780718 -1.11221
Spine1  -1.66968 -0.0776482 -1.53204
HEad  -55.7714 -17.1573 4.82018
LeftShoulder1  -1.94126e-019 -3.10601e-018 -2.51263e-017
LeftArm  -13.9261 24.7348 -79.7114
LeftForeArm  33.1032 -14.4311 -2.38755
LeftHand  -0.403105 -1.22935 7.21966
RightShoulder  -4.96962e-017 0 -2.36833e-017
RightArm  -35.8404 -26.7436 80.0659
RightForeArm  53.2807 13.8679 1.31171
RightHand  -0.280656 -1.36168 -7.96579
LeftUpLeg  -9.41805 2.4429 -3.31942
LeftLeg  14.3661 16.1927 3.00978
LeftFoot  -1.55918 -0.00682516 -0.340032
LeftToes  -14.3983 1.46665e-006 1.03344e-007
331
root  -7.47228 34.444 -20.7754 178.619 78.393 174.295
RightUpLeg  -11.2845 -20.2763 -8.10972
RightLeg  12.7382 -0.381813 -0.0602545
RightFoot  2.30833 0.00781214 0.132397
RightToes  -35.9816 -0.187205 -0.291316
Spine  -0.798491 0.250703 -1.39146
Spine1  -1.62997 0.4047 -2.08741
HEad  -54.0174 -16.8253 2.58022
LeftShoulder1  -1.94126e-019 -3.10601e-018 -2.51263e-017
LeftArm  -14.3135 24.7229 -79.2042
LeftForeArm  32.7615 -13.9058 -2.28425
LeftHand  -0.403802 -1.05119 7.41722
RightShoulder  -4.96962e-017 0 -2.36833e-017
RightArm  -35.2571 -26.9675 79.7632
RightForeArm  53.586 13.9376 1.29966
RightHand  -0.28585 -1.36993 -8.1325
LeftUpLeg  -9.58027 2.07825 -3.4872
LeftLeg  14.4661 16.3015 3.05843
LeftFoot  -1.35805 -0.00526595 -0.28277
LeftToes  -13.1876 1.46665e-006 1.03344e-007
332
root  -7.51814 34.4242 -20.9135 178.617 78.5256 174.098
RightUpLeg  -11.2796 -20.2057 -8.2584
RightLeg  11.7227 0.060796 0.00935652
RightFoot  6.78956 0.0232356 0.140215
RightToes  -35.467 -0.183322 -0.288111
Spine  -0.806328 0.573748 -1.72755
Spine1  -1.65086 1.05071 -2.75963
HEad  -52.4058 -16.3812 0.708782
LeftShoulder1  -1.94126e-019 -3.10601e-018 -2.51263e-017
LeftArm  -14.6551 24.7952 -78.6127
LeftForeArm  32.3865 -13.5242 -2.19896
LeftHand  -0.398401 -1.0301 7.34193
RightShoulder  -4.96962e-017 0 -2.36833e-017
RightArm  -34.4704 -27.0658 79.3395
RightForeArm  53.8383 13.9946 1.2913
RightHand  -0.29137 -1.2216 -8.01458
LeftUpLeg  -9.87696 1.92366 -3.77731
LeftLeg  14.6001 16.5559 3.14424
LeftFoot  -1.21113 -0.00428292 -0.243669
LeftToes  -11.9728 1.46665e-006 1.03344e-007
333
root  -7.57139 34.3941 -21.0489 177.834 78.9873 173.005
RightUpLeg  -11.6488 -19.876 -8.38679
RightLeg  11.1177 0.603783 0.0796388
RightFoot  9.02199 0.024431 0.221036
RightToes  -32.1015 -0.158657 -0.266303
Spine  -0.842535 0.960117 -2.13369
Spine1  -1.73906 1.8245 -3.57767
HEad  -50.9515 -15.815 -0.795221
LeftShoulder1  -1.94126e-019 -3.10601e-018 -2.51263e-017
LeftArm  -14.6842 24.8127 -77.8664
LeftForeArm  32.2159 -13.1311 -2.12649
LeftHand  -0.399151 -1.11582 7.2656
RightShoulder  -4.96962e-017 0 -2.36833e-017
RightArm  -33.9075 -27.0091 78.9679
RightForeArm  53.9249 14.0254 1.28479
RightHand  -0.295488 -1.05797 -7.87852
LeftUpLeg  -10.3093 2.08632 -4.19777
LeftLeg  14.8602 16.8347 3.2735
LeftFoot  -1.37784 -0.00555421 -0.300356
LeftToes  -11.0562 1.46665e-006 1.03344e-007
334
root  -7.62566 34.3674 -21.1642 177.162 79.6066 172.081
RightUpLeg  -11.9455 -18.6807 -8.48359
RightLeg  10.6836 -0.144718 -0.0168383
RightFoot  9.60617 0.0357631 0.109296
RightToes  -31.2192 -0.152406 -0.26035
Spine  -0.852905 1.31154 -2.48427
Spine1  -1.78429 2.53954 -4.28231
HEad  -50.0841 -14.8825 -1.89081
LeftShoulder1  -1.94126e-019 -3.10601e-018 -2.51263e-017
LeftArm  -15.2964 24.892 -77.2672
LeftForeArm  32.3459 -13.0143 -2.11659
LeftHand  -0.407335 -1.10737 7.42095
RightShoulder  -4.96962e-017 0 -2.36833e-017
RightArm  -33.4824 -26.6107 78.5072
RightForeArm  54.1306 13.9794 1.28755
RightHand  -0.293141 -1.14348 -7.97495
LeftUpLeg  -10.6859 2.1882 -4.51409
LeftLeg  15.1434 17.2897 3.44636
LeftFoot  -1.60838 -0.00763685 -0.382509
LeftToes  -10.7869 1.46665e-006 1.03344e-007
335
root  -7.65755 34.3638 -21.2888 176.556 80.1896 171.309
RightUpLeg  -12.0108 -18.2291 -8.62147
RightLeg  10.0766 -0.10394 -0.0106464
RightFoot  10.2426 0.0372892 0.118777
RightToes  -31.2438 -0.15549 -0.263219
Spine  -0.8621 1.61141 -2.78401
Spine1  -1.8283 3.15449 -4.88657
HEad  -49.1745 -13.8632 -2.89587
LeftShoulder1  -1.94126e-019 -3.10601e-018 -2.51263e-017
LeftArm  -18.2475 25.0831 -77.0351
LeftForeArm  32.4555 -12.7346 -2.09242
LeftHand  -0.440315 -1.1812 7.92735
RightShoulder  -4.96962e-017 0 -2.36833e-017
RightArm  -33.4632 -26.0505 77.982
RightForeArm  54.4964 13.8634 1.29699
RightHand  -0.291453 -1.09325 -8.02602
LeftUpLeg  -10.7501 2.04863 -4.80689
LeftLeg  15.0313 17.9785 3.54312
LeftFoot  -1.81011 -0.00992686 -0.466819
LeftToes  -9.9036 1.46665e-006 1.03344e-007
336
root  -7.67284 34.373 -21.4113 176.311 80.597 170.898
RightUpLeg  -12.102 -19.2314 -8.69517
RightLeg  9.62314 1.22846 0.128832
RightFoot  10.8086 0.0150447 0.368598
RightToes  -32.2126 -0.162301 -0.269606
Spine  -0.909404 1.78573 -2.98537
Spine1  -1.94132 3.52589 -5.28484
HEad  -48.1192 -12.6754 -3.83991
LeftShoulder1  -1.94126e-019 -3.10601e-018 -2.51263e-017
LeftArm  -22.6499 25.5242 -77.2133
LeftForeArm  30.4635 -12.4643 -2.07937
LeftHand  -0.440329 -0.634907 8.59933
RightShoulder  -4.96962e-017 0 -2.36833e-017
RightArm  -33.1934 -25.5455 77.3144
RightForeArm  54.1415 14.0514 1.27833
RightHand  -0.292962 -1.11822 -7.9269
LeftUpLeg  -10.6507 2.06792 -5.03736
LeftLeg  14.6035 18.3622 3.47661
LeftFoot  -2.04384 -0.012717 -0.551361
LeftToes  -9.27674 1.46665e-006 1.03344e-007
